<svg xmlns="http://www.w3.org/2000/svg" width="237" height="302" viewBox="0 0 237 302">
  <g id="Group_334" data-name="Group 334" transform="translate(-394 -211)">
    <rect id="Rectangle_768" data-name="Rectangle 768" width="237" height="302" transform="translate(394 211)"/>
    <text id="Black_Friday" data-name="Black Friday" transform="translate(419 327)" fill="#d19822" font-size="24" font-family="NunitoSans-Black, Nunito Sans" font-weight="800" letter-spacing="0.02em"><tspan x="0" y="0">BLACK FRIDAY</tspan></text>
    <g id="Path_744" data-name="Path 744" transform="translate(471.491 299.459) rotate(180)" fill="#d19822" stroke-dasharray="3">
      <path d="M0,0,25.437,25.437,50.874,0V68.12H0Z" stroke="none"/>
      <path d="M 8.48529052734375 8.485279083251953 C 8.48529052734375 8.485279083251953 9.008201599121094 9.008190155029297 9.534816741943359 9.534801483154297 L 9.538936614990234 9.538921356201172 C 9.542499542236328 9.54248046875 9.546173095703125 9.546157836914062 9.549732208251953 9.549716949462891 L 10.60660934448242 10.60659027099609 L 8.48529052734375 12.72791290283203 L 6.363967895507812 10.60660171508789 L 8.48529052734375 8.485279083251953 Z M 12.72793197631836 12.72791290283203 C 12.72793197631836 12.72791290283203 14.8492546081543 14.84923553466797 14.8492546081543 14.84923553466797 L 12.72793197631836 16.97055816650391 L 10.60660934448242 14.84923553466797 L 12.72793197631836 12.72791290283203 Z M 16.97057723999023 16.97054672241211 L 19.0778751373291 19.07784271240234 C 19.08707809448242 19.0870475769043 19.09189987182617 19.09186553955078 19.09189987182617 19.09186553955078 L 16.97057723999023 21.21318817138672 L 14.8492546081543 19.09186553955078 L 16.97057723999023 16.97054672241211 Z M 21.21322250366211 21.21318817138672 C 21.21322250366211 21.21318817138672 21.74647521972656 21.74644088745117 22.27828979492188 22.27825164794922 L 23.33454322814941 23.33450317382812 L 21.21322250366211 25.4558219909668 L 19.09189987182617 23.33451080322266 L 21.21322250366211 21.21318817138672 Z M 27.57718849182129 23.29710006713867 L 29.69851112365723 25.41842269897461 L 27.57718849182129 27.53974533081055 L 25.45586585998535 25.41842269897461 C 25.45586585998535 25.41842269897461 27.57718849182129 23.29710006713867 27.57718849182129 23.29710006713867 Z M 31.81982231140137 19.0544548034668 L 33.94114685058594 21.17577743530273 L 31.81982231140137 23.29710006713867 L 29.69849967956543 21.17577743530273 L 31.79643630981445 19.07784271240234 C 31.81168174743652 19.06259918212891 31.81982231140137 19.0544548034668 31.81982231140137 19.0544548034668 Z M 36.06245422363281 14.81181335449219 L 38.18377685546875 16.93313217163086 L 36.06246566772461 19.0544548034668 L 33.94114685058594 16.93313217163086 C 33.94114685058594 16.93313217163086 34.48151016235352 16.39276504516602 35.01677703857422 15.85749816894531 L 36.06245803833008 14.81181335449219 Z M 40.30509948730469 10.56916809082031 L 42.42642211914062 12.69049072265625 L 40.30509948730469 14.81181335449219 L 38.18377685546875 12.69049072265625 C 38.18377685546875 12.69049072265625 40.30509948730469 10.56916809082031 40.30509948730469 10.56916809082031 Z M 44.54773330688477 6.326522827148438 L 46.6690559387207 8.447845458984375 L 44.54773330688477 10.56916809082031 L 42.42641067504883 8.447845458984375 L 44.51497650146484 6.359279632568359 C 44.53623580932617 6.338020324707031 44.54773330688477 6.326522827148438 44.54773330688477 6.326522827148438 Z M 50.8212890625 0.05295562744140625 L 50.87424468994141 0.05295562744140625 C 50.87424468994141 0.05295562744140625 50.87424468994141 3.052955627441406 50.87424468994141 3.052955627441406 L 49.75944519042969 3.052955627441406 L 50.87424468994141 4.167755126953125 L 50.87424468994141 4.242645263671875 L 49.06394195556641 6.052955627441406 L 50.87424468994141 6.052955627441406 C 50.87424468994141 6.052955627441406 50.87424468994141 9.052955627441406 50.87424468994141 9.052955627441406 L 47.87424468994141 9.052955627441406 L 47.87424468994141 6.052955627441406 L 48.51681137084961 6.052955627441406 L 46.6690559387207 4.2052001953125 C 46.6690559387207 4.2052001953125 47.21209335327148 3.662162780761719 47.74862670898438 3.125625610351562 L 50.8212890625 0.05295562744140625 Z M 47.87424468994141 12.05295562744141 L 50.87424468994141 12.05295562744141 C 50.87424468994141 12.05295562744141 50.87424468994141 15.05295562744141 50.87424468994141 15.05295562744141 L 47.87424468994141 15.05295562744141 L 47.87424468994141 12.05295562744141 Z M 47.87424468994141 18.05295562744141 L 50.87424468994141 18.05295562744141 C 50.87424468994141 18.05295562744141 50.87424468994141 21.05295562744141 50.87424468994141 21.05295562744141 L 47.87424468994141 21.05295562744141 L 47.87424468994141 18.05295562744141 Z M 47.87424468994141 24.05295562744141 L 50.87424468994141 24.05295562744141 C 50.87424468994141 24.05295562744141 50.87424468994141 27.05295562744141 50.87424468994141 27.05295562744141 L 47.87424468994141 27.05295562744141 L 47.87424468994141 24.05295562744141 Z M 47.87424468994141 30.05295562744141 L 50.87424468994141 30.05295562744141 C 50.87424468994141 30.05295562744141 50.87424468994141 33.05295562744141 50.87424468994141 33.05295562744141 L 47.87424468994141 33.05295562744141 L 47.87424468994141 30.05295562744141 Z M 47.87424468994141 36.05295562744141 L 50.87424468994141 36.05295562744141 C 50.87424468994141 36.05295562744141 50.87424468994141 39.05295562744141 50.87424468994141 39.05295562744141 L 47.87424468994141 39.05295562744141 L 47.87424468994141 36.05295562744141 Z M 47.87424468994141 42.05295562744141 L 50.87424468994141 42.05295562744141 C 50.87424468994141 42.05295562744141 50.87424468994141 45.05295562744141 50.87424468994141 45.05295562744141 L 47.87424468994141 45.05295562744141 L 47.87424468994141 42.05295562744141 Z M 47.87424468994141 48.05295562744141 L 50.87424468994141 48.05295562744141 C 50.87424468994141 48.05295562744141 50.87424468994141 51.05295562744141 50.87424468994141 51.05295562744141 L 47.87424468994141 51.05295562744141 L 47.87424468994141 48.05295562744141 Z M 47.87424468994141 54.05295562744141 L 50.87424468994141 54.05295562744141 C 50.87424468994141 54.05295562744141 50.87424468994141 57.05295562744141 50.87424468994141 57.05295562744141 L 47.87424468994141 57.05295562744141 L 47.87424468994141 54.05295562744141 Z M 47.87424468994141 60.05295562744141 L 50.87424468994141 60.05295562744141 C 50.87424468994141 60.05295562744141 50.87424468994141 63.05295562744141 50.87424468994141 63.05295562744141 L 47.87424468994141 63.05295562744141 L 47.87424468994141 60.05295562744141 Z M 49.94175720214844 65.12046813964844 L 50.87424468994141 65.12046813964844 L 50.87424468994141 66.05295562744141 L 50.87424468994141 66.05295562744141 L 50.87424468994141 65.12046813964844 L 50.87424468994141 66.05295562744141 L 50.87424468994141 66.05295562744141 C 50.87424468994141 66.05295562744141 50.87424468994141 68.12046813964844 50.87424468994141 68.12046813964844 L 47.87424468994141 68.12046813964844 L 47.87424468994141 68.12046813964844 L 47.87424468994141 68.12046813964844 L 47.87424468994141 68.12046813964844 L 47.87424468994141 66.05295562744141 L 49.94175720214844 66.05295562744141 L 49.94175720214844 65.12046813964844 Z M 43.94175720214844 65.12046813964844 L 46.94175720214844 65.12046813964844 L 46.94175720214844 68.12046813964844 C 46.94175720214844 68.12046813964844 43.94175720214844 68.12046813964844 43.94175720214844 68.12046813964844 L 43.94175720214844 65.12046813964844 Z M 37.94175720214844 65.12046813964844 L 40.94175720214844 65.12046813964844 L 40.94175720214844 68.12046813964844 C 40.94175720214844 68.12046813964844 37.94175720214844 68.12046813964844 37.94175720214844 68.12046813964844 L 37.94175720214844 65.12046813964844 Z M 31.9417552947998 65.12046813964844 L 34.94175720214844 65.12046813964844 L 34.94175720214844 68.12046813964844 C 34.94175720214844 68.12046813964844 31.9417552947998 68.12046813964844 31.9417552947998 68.12046813964844 L 31.9417552947998 65.12046813964844 Z M 25.9417552947998 65.12046813964844 L 28.9417552947998 65.12046813964844 L 28.9417552947998 68.12046813964844 C 28.9417552947998 68.12046813964844 25.9417552947998 68.12046813964844 25.9417552947998 68.12046813964844 L 25.9417552947998 65.12046813964844 Z M 19.9417552947998 65.12046813964844 L 22.9417552947998 65.12046813964844 L 22.9417552947998 68.12046813964844 C 22.9417552947998 68.12046813964844 19.9417552947998 68.12046813964844 19.9417552947998 68.12046813964844 L 19.9417552947998 65.12046813964844 Z M 13.94175720214844 65.12046813964844 L 16.94175720214844 65.12046813964844 L 16.94175720214844 68.12046813964844 C 16.94175720214844 68.12046813964844 13.94175720214844 68.12046813964844 13.94175720214844 68.12046813964844 L 13.94175720214844 65.12046813964844 Z M 7.941757202148438 65.12046813964844 L 10.94175720214844 65.12046813964844 L 10.94175720214844 68.12046813964844 C 10.94175720214844 68.12046813964844 7.941757202148438 68.12046813964844 7.941757202148438 68.12046813964844 L 7.941757202148438 65.12046813964844 Z M 0 64.06222534179688 L 3 64.06222534179688 L 3 65.12046813964844 L 4.941757202148438 65.12046813964844 L 4.941757202148438 68.12046813964844 C 4.941757202148438 68.12046813964844 1.941757202148438 68.12046813964844 1.941757202148438 68.12046813964844 L 1.941757202148438 67.06222534179688 L 0 67.06222534179688 L 0 64.06222534179688 Z M 0 58.06222534179688 L 3 58.06222534179688 L 3 61.06222152709961 L 0 61.06222152709961 L 0 58.06222534179688 Z M 0 52.06222534179688 L 3 52.06222534179688 L 3 55.06222534179688 L 0 55.06222534179688 L 0 52.06222534179688 Z M 0 46.06222534179688 L 3 46.06222534179688 L 3 49.06222534179688 L 0 49.06222534179688 L 0 46.06222534179688 Z M 0 40.06222534179688 L 3 40.06222534179688 L 3 43.06222534179688 L 0 43.06222534179688 L 0 40.06222534179688 Z M 0 34.06222152709961 L 3 34.06222152709961 L 3 37.06222534179688 L 0 37.06222534179688 L 0 34.06222152709961 Z M 0 28.06222152709961 L 3 28.06222152709961 L 3 31.06222152709961 L 0 31.06222152709961 L 0 28.06222152709961 Z M 0 22.06222152709961 L 3 22.06222152709961 L 3 25.06222152709961 L 0 25.06222152709961 L 0 22.06222152709961 Z M 0 16.06222152709961 L 3 16.06222152709961 L 3 19.06222152709961 L 0 19.06222152709961 L 0 16.06222152709961 Z M 0 10.06222152709961 L 3 10.06222152709961 L 3 13.06222152709961 L 0 13.06222152709961 L 0 10.06222152709961 Z M 0 0 L 1.062225341796875 1.062225341796875 L 1.062221527099609 1.062225341796875 C 1.592033386230469 1.592033386230469 2.121322631835938 2.121322631835938 2.121322631835938 2.121322631835938 L 0.1804237365722656 4.062225341796875 L 3 4.062225341796875 L 3 5.485279083251953 L 4.242645263671875 4.242633819580078 L 6.359291076660156 6.359279632568359 C 6.362377166748047 6.36236572265625 6.363967895507812 6.363956451416016 6.363967895507812 6.363956451416016 L 4.242645263671875 8.485279083251953 L 2.819587707519531 7.062221527099609 L 0 7.062221527099609 L 0 0 Z" stroke="none"/>
    </g>
    <text id="BLACK" transform="translate(426 246)" fill="#fff" font-size="4" font-family="NunitoSans-SemiBold, Nunito Sans" font-weight="600" letter-spacing="0.02em"><tspan x="0" y="0">BLACK</tspan></text>
    <text id="FRIDAY" transform="translate(465 247)" fill="#fff" font-size="5" font-family="NunitoSans-SemiBold, Nunito Sans" font-weight="600" letter-spacing="0.02em"><tspan x="-18.06" y="0">FRIDAY</tspan></text>
    <text id="COUPONS" transform="translate(426 257)" font-size="7" font-family="NunitoSans-ExtraBold, Nunito Sans" font-weight="800" letter-spacing="0.02em"><tspan x="0" y="0">COUPONS</tspan></text>
    <text id="Countdown_to_the_Biggest_Black_Friday_Deals_in_the_History_of_Fashion_E-commerce" data-name="Countdown to the Biggest Black Friday 
Deals in the History of Fashion E-commerce" transform="translate(420 405)" fill="#d19822" font-size="8" font-family="NunitoSans-Regular, Nunito Sans" letter-spacing="0.02em"><tspan x="0" y="0">Countdown to the Biggest Black Friday </tspan><tspan x="0" y="13">Deals in the History of Fashion E-commerce</tspan></text>
    <text id="Be_the_first_to_get_a_63_off_coupon_code_in_your_inbox." data-name="Be the first to get a 63% off 
coupon code in your inbox." transform="translate(419 352)" fill="#fff" font-size="14" font-family="NunitoSans-Regular, Nunito Sans" letter-spacing="0.02em"><tspan x="0" y="0">Be the first to get a 63% off </tspan><tspan x="0" y="14">coupon code in your inbox.</tspan></text>
  </g>
</svg>
